<svg width="288" height="386" viewBox="0 0 288 386" fill="none" xmlns="http://www.w3.org/2000/svg">
<g clip-path="url(#clip0_9_4)">
<path d="M144 386C223.529 386 288 377.13 288 366.188C288 355.246 223.529 346.375 144 346.375C64.471 346.375 0 355.246 0 366.188C0 377.13 64.471 386 144 386Z" fill="black" fill-opacity="0.06"/>
<path fill-rule="evenodd" clip-rule="evenodd" d="M48.8623 0.683186C48.8623 0.305873 49.1197 0 49.4372 0H232.24C232.557 0 232.814 0.305873 232.814 0.683186V10.2478C232.814 10.6251 232.557 10.931 232.24 10.931H114.695C114.543 10.931 114.396 11.003 114.289 11.1311L58.2283 77.7568C58.1203 77.8846 58.0599 78.0588 58.0599 78.2398V362.088C58.0599 362.466 57.8024 362.772 57.4851 362.772H49.4372C49.1197 362.772 48.8623 362.466 48.8623 362.088V0.683186ZM58.0599 64.7133C58.0599 65.322 58.679 65.6268 59.0412 65.1964L103.72 12.0972C104.082 11.6668 103.826 10.931 103.314 10.931H58.6348C58.3174 10.931 58.0599 11.2368 58.0599 11.6142V64.7133Z" fill="black"/>
<path fill-rule="evenodd" clip-rule="evenodd" d="M209.82 263.49V195.391H208.096V265.076H208.173C207.957 266.742 208.928 269.435 210.747 271.873C213.088 275.01 215.948 276.538 217.136 275.286C218.324 274.034 217.389 270.477 215.047 267.34C213.288 264.982 211.236 263.534 209.82 263.49ZM210.714 265.857C210.287 265.629 210.019 265.561 209.866 265.544C209.862 265.726 209.886 266.051 210.026 266.582C210.315 267.685 210.99 269.11 212.037 270.513C213.084 271.916 214.195 272.882 215.081 273.356C215.508 273.584 215.776 273.652 215.929 273.669C215.933 273.487 215.909 273.162 215.769 272.631C215.479 271.529 214.804 270.103 213.758 268.7C212.711 267.297 211.6 266.33 210.714 265.857Z" fill="black"/>
<path d="M206.659 133.221L206.638 202.05M205.944 199.49C207.035 200.742 206.874 204.603 205.228 207.002C203.583 209.401 201.365 210.331 200.274 209.079C199.183 207.828 199.632 204.868 201.277 202.468C202.922 200.069 204.853 198.239 205.944 199.49Z" stroke="black" stroke-width="3" stroke-linecap="round"/>
<path d="M207.808 114.775V117.508M207.9 196.074C212.399 196.074 215.996 191.627 215.818 186.284L213.71 122.794C213.599 119.46 211.293 116.825 208.485 116.825C205.722 116.825 203.436 119.38 203.267 122.658L199.989 186.079C199.709 191.497 203.331 196.074 207.9 196.074Z" stroke="black" stroke-width="3"/>
<path d="M232.912 103.637C233.291 103.294 233.365 102.651 233.077 102.201C232.789 101.75 232.248 101.662 231.868 102.004L232.912 103.637ZM228.253 105.27C227.874 105.612 227.8 106.255 228.088 106.706C228.377 107.156 228.917 107.244 229.296 106.902L228.253 105.27ZM229.863 101.965C229.575 101.515 229.034 101.426 228.655 101.769C228.275 102.112 228.202 102.755 228.49 103.205L229.863 101.965ZM231.238 107.502C231.526 107.952 232.067 108.04 232.446 107.697C232.825 107.355 232.899 106.712 232.61 106.262L231.238 107.502ZM230.187 113.871C229.743 114.076 229.524 114.671 229.697 115.198C229.87 115.725 230.37 115.986 230.814 115.78L230.187 113.871ZM231.802 115.911C232.061 116.386 232.595 116.521 232.994 116.213C233.394 115.905 233.507 115.27 233.248 114.795L231.802 115.911ZM199.966 91.704C198.293 106.284 206.882 119.716 219.15 121.704L219.383 119.674C208.058 117.838 200.13 105.439 201.675 91.9807L199.966 91.704ZM219.15 121.704C231.418 123.693 242.72 113.485 244.393 98.9048L242.685 98.6281C241.14 112.087 230.708 121.509 219.383 119.674L219.15 121.704ZM244.393 98.9048C246.066 84.325 237.478 70.8928 225.209 68.9048L224.976 70.9352C236.301 72.7709 244.229 85.1694 242.685 98.6281L244.393 98.9048ZM225.209 68.9048C212.941 66.916 201.639 77.1235 199.966 91.704L201.675 91.9807C203.219 78.522 213.652 69.0995 224.976 70.9352L225.209 68.9048ZM231.868 102.004L228.253 105.27L229.296 106.902L232.912 103.637L231.868 102.004ZM228.49 103.205L231.238 107.502L232.61 106.262L229.863 101.965L228.49 103.205ZM204.934 6.15197L205.527 79.2523L207.252 79.2332L206.659 6.1322L204.934 6.15197ZM230.814 115.78C230.947 115.718 231.19 115.654 231.415 115.678C231.621 115.701 231.73 115.781 231.802 115.911L233.248 114.795C232.807 113.99 232.135 113.699 231.572 113.638C231.028 113.578 230.516 113.718 230.187 113.871L230.814 115.78Z" fill="black"/>
</g>
<defs>
<clipPath id="clip0_9_4">
<rect width="288" height="386" fill="white"/>
</clipPath>
</defs>
</svg>

